<?xml version="1.0" encoding="UTF-8"?>
<svg width="24px" height="24px" stroke-width="1.5" viewBox="0 0 24 24" fill="none" xmlns="http://www.w3.org/2000/svg" color="#000000">
<path d="M12 8L12 6" stroke="#2563eb" stroke-width="1.5" stroke-linecap="round" stroke-linejoin="round"></path>
<path d="M12 16.01L12.01 15.9989" stroke="#2563eb" stroke-width="1.5" stroke-linecap="round" stroke-linejoin="round"></path>
<path d="M7 16.01L7.01 15.9989" stroke="#2563eb" stroke-width="1.5" stroke-linecap="round" stroke-linejoin="round"></path>
<path d="M17 16.01L17.01 15.9989" stroke="#2563eb" stroke-width="1.5" stroke-linecap="round" stroke-linejoin="round"></path>
<path d="M12 20L12 18" stroke="#2563eb" stroke-width="1.5" stroke-linecap="round" stroke-linejoin="round"></path>
<path d="M17 20L17 18" stroke="#2563eb" stroke-width="1.5" stroke-linecap="round" stroke-linejoin="round"></path>
<path d="M7 20L7 18" stroke="#2563eb" stroke-width="1.5" stroke-linecap="round" stroke-linejoin="round"></path>
<path d="M19 14V8C19 6.89543 18.1046 6 17 6H7C5.89543 6 5 6.89543 5 8V14C5 15.1046 5.89543 16 7 16H17C18.1046 16 19 15.1046 19 14Z" stroke="#2563eb" stroke-width="1.5"></path>
</svg>